<?xml version="1.0" standalone="no"?><!DOCTYPE svg PUBLIC "-//W3C//DTD SVG 1.1//EN" "http://www.w3.org/Graphics/SVG/1.1/DTD/svg11.dtd"><svg t="1675633403612" class="icon" viewBox="0 0 1024 1024" version="1.1" xmlns="http://www.w3.org/2000/svg" p-id="2868" xmlns:xlink="http://www.w3.org/1999/xlink" width="200" height="200"><path d="M958.060195 237.681284c0 9.611915-7.792477 17.404392-17.404392 17.404392L79.092359 255.085676c-9.611915 0-17.404392-7.792477-17.404392-17.404392l0-90.030479c0-9.611915 7.792477-17.404392 17.404392-17.404392l861.562421 0c9.611915 0 17.404392 7.792477 17.404392 17.404392L958.059172 237.681284z" fill="#ffffff" p-id="2869"></path><path d="M958.060195 557.488007c0 9.611915-7.792477 17.404392-17.404392 17.404392L79.092359 574.892399c-9.611915 0-17.404392-7.792477-17.404392-17.404392l0-90.030479c0-9.611915 7.792477-17.404392 17.404392-17.404392l861.562421 0c9.611915 0 17.404392 7.792477 17.404392 17.404392L958.059172 557.488007z" fill="#ffffff" p-id="2870"></path><path d="M958.060195 877.29473c0 9.611915-7.792477 17.404392-17.404392 17.404392L79.092359 894.699122c-9.611915 0-17.404392-7.792477-17.404392-17.404392l0-90.030479c0-9.611915 7.792477-17.404392 17.404392-17.404392l861.562421 0c9.611915 0 17.404392 7.792477 17.404392 17.404392L958.059172 877.29473z" fill="#ffffff" p-id="2871"></path></svg>